
<svg width="893" font-style="italic" font-weight="900" height="258" viewBox="0 0 893 258" fill="none" xmlns="http://www.w3.org/2000/svg">
<path d="M79.5 132C79.5 154.368 61.3675 172.5 39 172.5C16.6325 172.5 -1.5 154.368 -1.5 132C-1.5 109.632 16.6325 91.5 39 91.5C61.3675 91.5 79.5 109.632 79.5 132Z" fill="#6366F1"/>
<path d="M266.5 132C266.5 154.368 248.368 172.5 226 172.5C203.632 172.5 185.5 154.368 185.5 132C185.5 109.632 203.632 91.5 226 91.5C248.368 91.5 266.5 109.632 266.5 132Z" fill="#6366F1"/>
<path d="M26.5 189.5L145 36.5C158 19.5 182 25 189.5 44.5L240.5 176.5C247 194.5 233.5 212.5 214.5 212.5H121.5C104.5 212.5 89 203.5 80.5 188.5L26.5 189.5Z" fill="#6366F1"/>
<path d="M121.5 212.5L240 59.5C253 42.5 277 48 284.5 67.5L335.5 199.5C342 217.5 328.5 235.5 309.5 235.5H216.5C199.5 235.5 184 226.5 175.5 211.5L121.5 212.5Z" fill="#6366F1" fill-opacity="0.5"/>
<text x="330" y="180" font-family="Inter, sans-serif" font-weight="800" font-size="160" fill="#6366F1">OwoCard</text>
</svg>
